<svg width="303" height="57" viewBox="0 0 303 57" fill="none" xmlns="http://www.w3.org/2000/svg">
<mask id="mask0_2450_5151" style="mask-type:luminance" maskUnits="userSpaceOnUse" x="0" y="0" width="303" height="57">
<path d="M303 0.957031H0V56.957H303V0.957031Z" fill="white"/>
</mask>
<g mask="url(#mask0_2450_5151)">
<path d="M206.101 4.32031V12.5179C206.101 13.4828 206.282 14.2797 206.648 14.9215C207.186 15.8865 208.098 16.3646 209.377 16.3646C210.909 16.3646 211.955 15.8434 212.506 14.8009C212.803 14.2366 212.954 13.4742 212.954 12.5179V4.32031H214.766V11.7683C214.766 13.4009 214.547 14.6545 214.108 15.5332C213.299 17.1357 211.77 17.9369 209.528 17.9369C207.285 17.9369 205.757 17.1357 204.956 15.5332C204.517 14.6545 204.297 13.4009 204.297 11.7683V4.32031H206.11H206.101Z" fill="white"/>
<path d="M216.548 7.9146H218.089V9.28876C218.545 8.72445 219.032 8.31522 219.54 8.06968C220.052 7.82414 220.62 7.69922 221.244 7.69922C222.618 7.69922 223.543 8.17737 224.025 9.13368C224.288 9.65922 224.421 10.4088 224.421 11.3823V17.5854H222.768V11.49C222.768 10.8998 222.682 10.426 222.506 10.0641C222.217 9.46106 221.692 9.15953 220.934 9.15953C220.551 9.15953 220.233 9.1983 219.987 9.27583C219.544 9.40937 219.152 9.67214 218.812 10.0684C218.541 10.3872 218.364 10.7189 218.283 11.0549C218.201 11.3952 218.162 11.882 218.162 12.5109V17.5768H216.539V7.9146H216.548Z" fill="white"/>
<path d="M226.269 4.32031H227.922V6.16401H226.269V4.32031ZM226.269 7.96031H227.922V17.5837H226.269V7.96031Z" fill="white"/>
<path d="M230.517 7.91406L233.096 15.7885L235.786 7.91406H237.564L233.926 17.5848H232.196L228.632 7.91406H230.517Z" fill="white"/>
<path d="M243.875 8.18128C244.516 8.50436 245.002 8.9222 245.338 9.43051C245.661 9.91728 245.876 10.4859 245.984 11.1364C246.079 11.58 246.126 12.2908 246.126 13.2687H239.096C239.127 14.2508 239.355 15.0434 239.785 15.6379C240.216 16.2324 240.879 16.5296 241.783 16.5296C242.622 16.5296 243.293 16.2496 243.797 15.6853C244.077 15.3579 244.275 14.9831 244.395 14.5524H245.993C245.949 14.9056 245.812 15.3019 245.575 15.7413C245.338 16.1764 245.071 16.5339 244.779 16.8096C244.288 17.292 243.681 17.6151 242.962 17.7831C242.575 17.8779 242.135 17.9296 241.645 17.9296C240.448 17.9296 239.436 17.4902 238.606 16.6157C237.775 15.7413 237.362 14.5136 237.362 12.937C237.362 11.3604 237.779 10.124 238.619 9.15482C239.454 8.18559 240.547 7.70312 241.899 7.70312C242.579 7.70312 243.242 7.86251 243.879 8.18559L243.875 8.18128ZM244.456 11.9764C244.391 11.2742 244.236 10.7099 243.999 10.2877C243.556 9.50374 242.82 9.11605 241.791 9.11605C241.051 9.11605 240.431 9.38743 239.931 9.92589C239.432 10.4644 239.165 11.1493 239.135 11.9807H244.46L244.456 11.9764Z" fill="white"/>
<path d="M247.628 7.9146H249.17V9.58599C249.294 9.26291 249.604 8.8666 250.099 8.39706C250.594 7.93183 251.163 7.69922 251.804 7.69922C251.834 7.69922 251.886 7.69922 251.959 7.70783C252.032 7.71214 252.153 7.72506 252.329 7.7423V9.45676C252.234 9.43953 252.144 9.4266 252.062 9.4223C251.98 9.41799 251.89 9.41368 251.795 9.41368C250.977 9.41368 250.349 9.67645 249.91 10.202C249.471 10.7275 249.251 11.3349 249.251 12.0198V17.5811H247.628V7.9146Z" fill="white"/>
<path d="M253.952 14.5521C253.999 15.0948 254.137 15.5084 254.365 15.797C254.783 16.3225 255.506 16.581 256.539 16.581C257.155 16.581 257.693 16.4518 258.162 16.189C258.627 15.9262 258.864 15.5213 258.864 14.9742C258.864 14.5607 258.679 14.2419 258.304 14.0265C258.067 13.893 257.594 13.7422 256.892 13.5656L255.579 13.2425C254.74 13.0401 254.124 12.8074 253.728 12.5576C253.018 12.1182 252.665 11.5108 252.665 10.7354C252.665 9.82222 253.001 9.08129 253.668 8.51268C254.335 7.94837 255.235 7.66406 256.363 7.66406C257.839 7.66406 258.902 8.09052 259.552 8.94775C259.961 9.49052 260.159 10.0721 260.147 10.701H258.614C258.584 10.3348 258.45 10.0031 258.218 9.70591C257.835 9.27945 257.176 9.06837 256.234 9.06837C255.605 9.06837 255.132 9.18468 254.809 9.41729C254.486 9.64991 254.322 9.96006 254.322 10.3434C254.322 10.7613 254.533 11.0973 254.959 11.3514C255.205 11.5022 255.566 11.6358 256.044 11.7478L257.138 12.0105C258.326 12.2948 259.122 12.5662 259.527 12.8333C260.159 13.2468 260.474 13.9016 260.474 14.7933C260.474 15.685 260.142 16.3958 259.484 17.0247C258.825 17.6493 257.818 17.9638 256.466 17.9638C255.011 17.9638 253.978 17.6364 253.375 16.9859C252.768 16.3311 252.445 15.5256 252.402 14.5607H253.965L253.952 14.5521Z" fill="white"/>
<path d="M261.765 4.32031H263.418V6.16401H261.765V4.32031ZM261.765 7.96031H263.418V17.5837H261.765V7.96031Z" fill="white"/>
<path d="M270.585 8.21027C270.874 8.39119 271.201 8.70565 271.567 9.15796V4.27734H273.129V17.5838H271.666V16.2398C271.287 16.8343 270.843 17.265 270.327 17.5321C269.81 17.7949 269.221 17.9284 268.558 17.9284C267.486 17.9284 266.556 17.4761 265.773 16.5715C264.989 15.6669 264.593 14.4607 264.593 12.9573C264.593 11.5487 264.95 10.3297 265.665 9.29581C266.379 8.26196 267.404 7.74934 268.734 7.74934C269.47 7.74934 270.09 7.90442 270.585 8.21888V8.21027ZM266.961 15.4601C267.4 16.158 268.097 16.5069 269.061 16.5069C269.81 16.5069 270.426 16.1838 270.908 15.5377C271.39 14.8915 271.631 13.961 271.631 12.7506C271.631 11.5401 271.382 10.6226 270.887 10.0367C270.391 9.45088 269.776 9.15796 269.044 9.15796C268.231 9.15796 267.572 9.47242 267.064 10.097C266.56 10.7217 266.306 11.6435 266.306 12.8583C266.306 13.8921 266.526 14.7623 266.961 15.4601Z" fill="white"/>
<path d="M280.129 11.7313C280.503 11.6839 280.753 11.5288 280.878 11.2617C280.951 11.1153 280.985 10.9085 280.985 10.6371C280.985 10.0814 280.787 9.6765 280.396 9.42666C280.004 9.17681 279.44 9.05189 278.708 9.05189C277.86 9.05189 277.262 9.2802 276.909 9.74112C276.711 9.99527 276.582 10.3744 276.521 10.874H275.006C275.036 9.68081 275.424 8.84943 276.164 8.37989C276.905 7.91035 277.765 7.67773 278.747 7.67773C279.883 7.67773 280.805 7.89312 281.515 8.3282C282.217 8.76327 282.57 9.43527 282.57 10.3528V15.9227C282.57 16.0907 282.604 16.2285 282.673 16.3276C282.742 16.431 282.888 16.4827 283.112 16.4827C283.185 16.4827 283.267 16.4784 283.357 16.4697C283.448 16.4611 283.542 16.4482 283.646 16.431V17.6328C283.392 17.706 283.202 17.7491 283.069 17.7664C282.935 17.7836 282.755 17.7922 282.526 17.7922C281.967 17.7922 281.562 17.594 281.308 17.1977C281.175 16.9867 281.084 16.6894 281.028 16.306C280.697 16.7411 280.223 17.1159 279.604 17.4347C278.984 17.7534 278.299 17.9128 277.555 17.9128C276.659 17.9128 275.927 17.6414 275.359 17.0987C274.791 16.5559 274.507 15.8753 274.507 15.0568C274.507 14.1608 274.787 13.4673 275.346 12.9719C275.906 12.4808 276.638 12.175 277.546 12.063L280.137 11.7399L280.129 11.7313ZM276.711 16.1208C277.055 16.3922 277.46 16.5257 277.929 16.5257C278.502 16.5257 279.053 16.3922 279.591 16.1294C280.495 15.69 280.942 14.9707 280.942 13.9756V12.6704C280.744 12.7953 280.49 12.903 280.176 12.9891C279.862 13.0753 279.556 13.1356 279.259 13.17L278.278 13.295C277.688 13.3725 277.249 13.4974 276.952 13.6654C276.448 13.9497 276.199 14.3977 276.199 15.018C276.199 15.4876 276.371 15.8537 276.715 16.1251L276.711 16.1208Z" fill="white"/>
<path d="M290.142 8.21027C290.43 8.39119 290.757 8.70565 291.123 9.15796V4.27734H292.686V17.5838H291.222V16.2398C290.843 16.8343 290.4 17.265 289.884 17.5321C289.367 17.7949 288.777 17.9284 288.114 17.9284C287.042 17.9284 286.113 17.4761 285.329 16.5715C284.546 15.6669 284.15 14.4607 284.15 12.9573C284.15 11.5487 284.507 10.3297 285.222 9.29581C285.936 8.26196 286.961 7.74934 288.291 7.74934C289.027 7.74934 289.647 7.90442 290.142 8.21888V8.21027ZM286.517 15.4601C286.956 16.158 287.654 16.5069 288.618 16.5069C289.367 16.5069 289.983 16.1838 290.465 15.5377C290.947 14.8915 291.188 13.961 291.188 12.7506C291.188 11.5401 290.938 10.6226 290.443 10.0367C289.948 9.45088 289.333 9.15796 288.601 9.15796C287.787 9.15796 287.129 9.47242 286.621 10.097C286.117 10.7217 285.863 11.6435 285.863 12.8583C285.863 13.8921 286.082 14.7623 286.517 15.4601Z" fill="white"/>
<path d="M204.332 22.3574H213.527V23.9814H206.127V28.0091H212.631V29.59H206.127V35.6208H204.332V22.3574Z" fill="white"/>
<path d="M214.331 25.9498H215.872V27.6211C215.997 27.2981 216.307 26.9018 216.802 26.4322C217.297 25.967 217.865 25.7344 218.507 25.7344C218.537 25.7344 218.588 25.7344 218.662 25.743C218.735 25.7473 218.855 25.7602 219.032 25.7775V27.4919C218.937 27.4747 218.847 27.4618 218.765 27.4575C218.683 27.4531 218.593 27.4488 218.498 27.4488C217.68 27.4488 217.052 27.7116 216.613 28.2371C216.173 28.7627 215.954 29.3701 215.954 30.055V35.6162H214.331V25.9455V25.9498Z" fill="white"/>
<path d="M225.282 29.7664C225.657 29.719 225.907 29.564 226.031 29.2969C226.105 29.1504 226.139 28.9437 226.139 28.6723C226.139 28.1166 225.941 27.7117 225.549 27.4618C225.158 27.212 224.594 27.087 223.862 27.087C223.014 27.087 222.415 27.3154 222.062 27.7763C221.864 28.0304 221.735 28.4095 221.675 28.9092H220.16C220.19 27.716 220.577 26.8846 221.318 26.415C222.058 25.9455 222.919 25.7129 223.901 25.7129C225.037 25.7129 225.958 25.9283 226.668 26.3634C227.37 26.7984 227.723 27.4704 227.723 28.388V33.9578C227.723 34.1258 227.758 34.2637 227.826 34.3627C227.895 34.4661 228.042 34.5178 228.266 34.5178C228.339 34.5178 228.42 34.5135 228.511 34.5049C228.601 34.4963 228.696 34.4834 228.799 34.4661V35.668C228.545 35.7412 228.356 35.7843 228.222 35.8015C228.089 35.8187 227.908 35.8274 227.68 35.8274C227.12 35.8274 226.716 35.6292 226.462 35.2329C226.328 35.0218 226.238 34.7246 226.182 34.3412C225.851 34.7763 225.377 35.151 224.757 35.4698C224.137 35.7886 223.453 35.948 222.708 35.948C221.813 35.948 221.081 35.6766 220.513 35.1338C219.945 34.591 219.66 33.9104 219.66 33.092C219.66 32.196 219.94 31.5024 220.5 31.007C221.059 30.516 221.791 30.2101 222.7 30.0981L225.291 29.775L225.282 29.7664ZM221.864 34.156C222.209 34.4274 222.613 34.5609 223.083 34.5609C223.655 34.5609 224.206 34.4274 224.744 34.1646C225.648 33.7252 226.096 33.0058 226.096 32.0107V30.7055C225.898 30.8304 225.644 30.9381 225.33 31.0243C225.015 31.1104 224.71 31.1707 224.413 31.2052L223.431 31.3301C222.842 31.4077 222.402 31.5326 222.105 31.7006C221.602 31.9849 221.352 32.4329 221.352 33.0532C221.352 33.5227 221.524 33.8889 221.869 34.1603L221.864 34.156Z" fill="white"/>
<path d="M230.018 25.9498H231.559V27.3239C232.015 26.7596 232.501 26.3504 233.009 26.1048C233.522 25.8593 234.09 25.7344 234.714 25.7344C236.087 25.7344 237.013 26.2125 237.495 27.1688C237.758 27.6944 237.891 28.4439 237.891 29.4175V35.6205H236.238V29.5251C236.238 28.935 236.152 28.4611 235.975 28.0993C235.687 27.4962 235.162 27.1947 234.404 27.1947C234.021 27.1947 233.702 27.2335 233.457 27.311C233.014 27.4445 232.622 27.7073 232.282 28.1036C232.011 28.4224 231.834 28.7541 231.752 29.0901C231.671 29.4304 231.632 29.9171 231.632 30.5461V35.6119H230.009V25.9411L230.018 25.9498Z" fill="white"/>
<path d="M246.44 26.4668C247.125 26.9967 247.534 27.9099 247.672 29.2022H246.092C245.997 28.6078 245.778 28.1124 245.433 27.7161C245.089 27.3198 244.542 27.1259 243.78 27.1259C242.747 27.1259 242.007 27.6299 241.559 28.6422C241.271 29.297 241.124 30.1068 241.124 31.0675C241.124 32.0281 241.331 32.8508 241.74 33.5099C242.149 34.169 242.79 34.5007 243.668 34.5007C244.34 34.5007 244.878 34.2939 245.27 33.8847C245.666 33.4755 245.937 32.9111 246.087 32.2004H247.667C247.487 33.4841 247.035 34.4188 246.316 35.0133C245.592 35.6078 244.671 35.9007 243.548 35.9007C242.286 35.9007 241.275 35.4398 240.526 34.5136C239.772 33.5918 239.398 32.4373 239.398 31.0502C239.398 29.353 239.811 28.0305 240.633 27.0872C241.456 26.1438 242.506 25.6699 243.784 25.6699C244.874 25.6699 245.76 25.9327 246.44 26.4625V26.4668Z" fill="white"/>
<path d="M249.307 22.3574H250.96V24.2011H249.307V22.3574ZM249.307 25.9974H250.96V35.6208H249.307V25.9974Z" fill="white"/>
<path d="M253.857 32.5892C253.904 33.1319 254.042 33.5455 254.27 33.8341C254.688 34.3596 255.411 34.6181 256.444 34.6181C257.06 34.6181 257.598 34.4889 258.067 34.2261C258.532 33.9633 258.769 33.5584 258.769 33.0113C258.769 32.5978 258.584 32.279 258.209 32.0636C257.972 31.9301 257.499 31.7793 256.797 31.6027L255.484 31.2796C254.645 31.0772 254.029 30.8446 253.633 30.5947C252.923 30.1553 252.57 29.5479 252.57 28.7726C252.57 27.8593 252.906 27.1184 253.573 26.5498C254.24 25.9855 255.14 25.7012 256.268 25.7012C257.744 25.7012 258.807 26.1276 259.458 26.9849C259.866 27.5276 260.064 28.1092 260.052 28.7381H258.519C258.489 28.3719 258.356 28.0402 258.123 27.743C257.74 27.3166 257.081 27.1055 256.139 27.1055C255.51 27.1055 255.037 27.2218 254.714 27.4544C254.391 27.687 254.227 27.9972 254.227 28.3806C254.227 28.7984 254.438 29.1344 254.864 29.3886C255.11 29.5393 255.471 29.6729 255.949 29.7849L257.043 30.0476C258.231 30.3319 259.027 30.6033 259.432 30.8704C260.064 31.2839 260.379 31.9387 260.379 32.8304C260.379 33.7221 260.047 34.4329 259.389 35.0618C258.73 35.6864 257.723 36.0009 256.371 36.0009C254.916 36.0009 253.883 35.6735 253.28 35.023C252.673 34.3682 252.35 33.5627 252.307 32.5978H253.87L253.857 32.5892Z" fill="white"/>
<path d="M268.136 26.4668C268.82 26.9967 269.229 27.9099 269.367 29.2022H267.787C267.692 28.6078 267.473 28.1124 267.128 27.7161C266.784 27.3198 266.237 27.1259 265.475 27.1259C264.442 27.1259 263.702 27.6299 263.254 28.6422C262.966 29.297 262.819 30.1068 262.819 31.0675C262.819 32.0281 263.026 32.8508 263.435 33.5099C263.844 34.169 264.485 34.5007 265.364 34.5007C266.035 34.5007 266.573 34.2939 266.965 33.8847C267.361 33.4755 267.632 32.9111 267.783 32.2004H269.363C269.182 33.4841 268.73 34.4188 268.011 35.0133C267.288 35.6078 266.367 35.9007 265.243 35.9007C263.982 35.9007 262.97 35.4398 262.221 34.5136C261.468 33.5918 261.093 32.4373 261.093 31.0502C261.093 29.353 261.507 28.0305 262.329 27.0872C263.151 26.1438 264.201 25.6699 265.48 25.6699C266.569 25.6699 267.456 25.9327 268.136 26.4625V26.4668Z" fill="white"/>
<path d="M278.089 26.9148C278.941 27.7462 279.371 28.9653 279.371 30.5764C279.371 32.1875 278.997 33.4195 278.243 34.4361C277.49 35.4527 276.324 35.961 274.739 35.961C273.418 35.961 272.372 35.513 271.597 34.6127C270.822 33.7124 270.43 32.5062 270.43 30.9899C270.43 29.3659 270.839 28.0736 271.657 27.113C272.475 26.1524 273.573 25.6699 274.955 25.6699C276.19 25.6699 277.236 26.0835 278.089 26.9148ZM277.081 33.3419C277.477 32.5278 277.675 31.6188 277.675 30.6238C277.675 29.7235 277.533 28.9868 277.245 28.4225C276.793 27.5308 276.014 27.0872 274.907 27.0872C273.926 27.0872 273.211 27.4662 272.768 28.2244C272.32 28.9825 272.101 29.8958 272.101 30.9641C272.101 32.0324 272.325 32.8508 272.768 33.5358C273.216 34.2207 273.922 34.5653 274.89 34.5653C275.953 34.5653 276.685 34.1561 277.081 33.3419Z" fill="white"/>
<path d="M290.142 26.2478C290.43 26.4287 290.757 26.7432 291.123 27.1955V22.3105H292.686V35.617H291.222V34.273C290.843 34.8675 290.4 35.2982 289.884 35.5653C289.367 35.8281 288.777 35.9616 288.114 35.9616C287.042 35.9616 286.113 35.5093 285.329 34.6047C284.546 33.7001 284.15 32.4939 284.15 30.9905C284.15 29.5819 284.507 28.3629 285.222 27.329C285.936 26.2952 286.961 25.7825 288.291 25.7825C289.027 25.7825 289.647 25.9376 290.142 26.2521V26.2478ZM286.517 33.4976C286.956 34.1955 287.654 34.5444 288.618 34.5444C289.367 34.5444 289.983 34.2213 290.465 33.5752C290.947 32.929 291.188 31.9985 291.188 30.7881C291.188 29.5776 290.938 28.6601 290.443 28.0742C289.948 27.4884 289.333 27.1955 288.601 27.1955C287.787 27.1955 287.129 27.5099 286.621 28.1345C286.117 28.7592 285.863 29.681 285.863 30.8958C285.863 31.9296 286.082 32.7998 286.517 33.4976Z" fill="white"/>
<path d="M300.748 26.2184C301.39 26.5415 301.876 26.9593 302.212 27.4676C302.534 27.9544 302.75 28.523 302.857 29.1735C302.952 29.6172 303 30.3279 303 31.3058H295.97C296 32.2879 296.228 33.0805 296.659 33.675C297.089 34.2695 297.752 34.5667 298.656 34.5667C299.495 34.5667 300.167 34.2867 300.67 33.7224C300.95 33.395 301.148 33.0202 301.269 32.5895H302.866C302.823 32.9427 302.685 33.339 302.448 33.7784C302.212 34.2135 301.945 34.571 301.652 34.8467C301.162 35.3292 300.555 35.6522 299.836 35.8202C299.448 35.915 299.009 35.9667 298.518 35.9667C297.321 35.9667 296.31 35.5273 295.479 34.6529C294.648 33.7784 294.235 32.5507 294.235 30.9741C294.235 29.3975 294.653 28.1612 295.492 27.1919C296.327 26.2227 297.421 25.7402 298.773 25.7402C299.453 25.7402 300.115 25.8996 300.752 26.2227L300.748 26.2184ZM301.33 30.0135C301.265 29.3113 301.11 28.747 300.873 28.3249C300.43 27.5408 299.694 27.1532 298.665 27.1532C297.924 27.1532 297.305 27.4245 296.805 27.963C296.306 28.5015 296.039 29.1864 296.009 30.0178H301.334L301.33 30.0135Z" fill="white"/>
<path d="M206.265 40.3945L210.074 51.6893L213.837 40.3945H215.847L211.013 53.6579H209.11L204.284 40.3945H206.269H206.265Z" fill="white"/>
<path d="M216.82 40.3945H218.473V42.2382H216.82V40.3945ZM216.82 44.0345H218.473V53.6579H216.82V44.0345Z" fill="white"/>
<path d="M221.089 41.2852H222.73V43.9861H224.271V45.3128H222.73V51.6236C222.73 51.9596 222.846 52.1879 223.074 52.2999C223.199 52.3645 223.41 52.399 223.707 52.399C223.784 52.399 223.87 52.399 223.961 52.3947C224.051 52.3904 224.154 52.3818 224.275 52.3645V53.6568C224.09 53.7128 223.896 53.7516 223.694 53.7732C223.492 53.799 223.276 53.8076 223.04 53.8076C222.282 53.8076 221.77 53.6138 221.498 53.2261C221.227 52.8384 221.094 52.3344 221.094 51.7141V45.3128H219.785V43.9861H221.094V41.2852H221.089Z" fill="white"/>
<path d="M232.795 44.952C233.647 45.7833 234.077 47.0024 234.077 48.6135C234.077 50.2246 233.703 51.4566 232.95 52.4732C232.196 53.4898 231.03 53.9981 229.445 53.9981C228.124 53.9981 227.078 53.5501 226.303 52.6498C225.528 51.7495 225.136 50.5433 225.136 49.027C225.136 47.403 225.545 46.1107 226.363 45.1501C227.181 44.1895 228.279 43.707 229.661 43.707C230.896 43.707 231.942 44.1206 232.795 44.952ZM231.787 51.379C232.183 50.5649 232.381 49.656 232.381 48.6609C232.381 47.7606 232.239 47.024 231.951 46.4596C231.499 45.568 230.72 45.1243 229.613 45.1243C228.632 45.1243 227.917 45.5033 227.474 46.2615C227.026 47.0196 226.807 47.9329 226.807 49.0012C226.807 50.0695 227.031 50.888 227.474 51.5729C227.922 52.2578 228.628 52.6024 229.596 52.6024C230.659 52.6024 231.391 52.1932 231.787 51.379Z" fill="white"/>
<path d="M235.73 43.9869H237.271V45.6583C237.396 45.3352 237.706 44.9389 238.201 44.4693C238.696 44.0041 239.264 43.7715 239.906 43.7715C239.936 43.7715 239.987 43.7715 240.061 43.7801C240.134 43.7844 240.254 43.7973 240.431 43.8146V45.529C240.336 45.5118 240.246 45.4989 240.164 45.4946C240.082 45.4903 239.992 45.4859 239.897 45.4859C239.079 45.4859 238.451 45.7487 238.011 46.2743C237.572 46.7998 237.353 47.4072 237.353 48.0921V53.6533H235.73V43.9826V43.9869Z" fill="white"/>
<path d="M241.718 40.3945H243.371V42.2382H241.718V40.3945ZM241.718 44.0345H243.371V53.6579H241.718V44.0345Z" fill="white"/>
<path d="M250.405 47.8035C250.779 47.7562 251.029 47.6011 251.154 47.334C251.227 47.1875 251.262 46.9808 251.262 46.7094C251.262 46.1537 251.064 45.7488 250.672 45.4989C250.28 45.2491 249.716 45.1242 248.984 45.1242C248.136 45.1242 247.538 45.3525 247.185 45.8134C246.987 46.0675 246.858 46.4466 246.798 46.9463H245.282C245.312 45.7531 245.7 44.9217 246.44 44.4522C247.181 43.9826 248.042 43.75 249.023 43.75C250.16 43.75 251.081 43.9654 251.791 44.4005C252.493 44.8355 252.846 45.5075 252.846 46.4251V51.9949C252.846 52.1629 252.88 52.3008 252.949 52.3998C253.018 52.5032 253.164 52.5549 253.388 52.5549C253.461 52.5549 253.543 52.5506 253.633 52.542C253.724 52.5334 253.819 52.5205 253.922 52.5032V53.7051C253.668 53.7783 253.478 53.8214 253.345 53.8386C253.212 53.8558 253.031 53.8645 252.803 53.8645C252.243 53.8645 251.838 53.6663 251.584 53.27C251.451 53.0589 251.361 52.7617 251.305 52.3783C250.973 52.8134 250.5 53.1882 249.88 53.5069C249.26 53.8257 248.575 53.9851 247.831 53.9851C246.935 53.9851 246.204 53.7137 245.635 53.1709C245.067 52.6282 244.783 51.9475 244.783 51.1291C244.783 50.2331 245.063 49.5395 245.622 49.0442C246.182 48.5531 246.914 48.2472 247.822 48.1352L250.414 47.8122L250.405 47.8035ZM246.987 52.1931C247.331 52.4645 247.736 52.598 248.205 52.598C248.778 52.598 249.329 52.4645 249.867 52.2017C250.771 51.7623 251.219 51.0429 251.219 50.0479V48.7426C251.02 48.8675 250.767 48.9752 250.452 49.0614C250.138 49.1475 249.832 49.2078 249.535 49.2423L248.554 49.3672C247.964 49.4448 247.525 49.5697 247.228 49.7377C246.724 50.022 246.475 50.47 246.475 51.0903C246.475 51.5598 246.647 51.926 246.991 52.1974L246.987 52.1931Z" fill="white"/>
<path fill-rule="evenodd" clip-rule="evenodd" d="M93.7998 4.26953V32.2868L93.7654 33.9625L93.7352 35.4701L93.6664 36.8357L93.5889 38.0289L93.4769 39.0585L93.3435 39.9243L93.0422 41.096L92.4955 42.2246L91.7422 43.2326L90.765 44.1545L90.5541 44.3138L89.6242 44.8868L88.5481 45.3434L87.3083 45.6449L85.9265 45.8388L84.3854 45.9034L83.7914 45.8861L82.345 45.7741L81.0449 45.5329L79.8396 45.1797L78.7764 44.68L77.8336 44.0511L77.2525 43.5901L76.3872 42.6554L75.677 41.6301L75.1346 40.4843L74.7816 39.2178L74.7299 39.024L74.6352 38.2357L74.5534 37.2406L74.4932 36.0043L74.4458 34.5569L74.4114 32.8812V30.9686V4.26953H64.4546V30.568L64.4718 31.6148L64.4847 33.2345L64.5321 34.7637L64.5923 36.2283L64.6741 37.5766L64.7861 38.8646L64.9152 40.0363L65.0788 41.1477L65.2337 42.1557L65.4318 43.0732L65.69 43.9735L66.1205 45.1452L66.7016 46.304L67.3904 47.4326L68.2255 48.5225L68.6732 49.0523L69.5428 49.9354L70.5027 50.7452L71.566 51.4818L72.7369 52.1538L74.011 52.7655L74.3296 52.912L75.2939 53.2652L76.3399 53.5711L77.4763 53.8295L78.7333 54.0363L80.0635 54.2L81.5099 54.3077L83.0552 54.3895L84.691 54.4068H85.3454L86.8434 54.3594L88.2726 54.2431L89.607 54.0837L90.8597 53.8769L92.0478 53.6055L93.1369 53.2825L94.17 52.8991L94.7942 52.6234L96.0296 52.0117L97.1575 51.3354L98.1992 50.5988L99.1333 49.776L99.9814 48.8929L100.24 48.5698L100.98 47.5575L101.604 46.4634L102.134 45.2917L102.586 44.0381L102.939 42.7028L103.038 42.2074L103.175 41.3243L103.305 40.3249L103.421 39.2178L103.516 37.9772L103.593 36.6461L103.662 35.1988L103.709 33.6394L103.726 31.9508L103.739 30.1674V4.26953H93.7998Z" fill="white"/>
<path fill-rule="evenodd" clip-rule="evenodd" d="M144.621 4.26953H110.859V53.5711H120.799V32.6271H141.362V24.2831H120.799V12.6178H144.621V4.26953Z" fill="white"/>
<path fill-rule="evenodd" clip-rule="evenodd" d="M185.292 4.26953L173.226 40.76L160.76 4.26953H149.985L167.591 53.5711H178.207L195.843 4.26953H185.292Z" fill="white"/>
<path d="M55.9612 0.957031H0V56.957H55.9612V0.957031Z" fill="white"/>
<path d="M30.4862 26.1437L30.4561 26.0662L30.413 25.9973L21.0115 13.617L20.8781 13.4533L20.7274 13.3025L20.5682 13.1647L20.396 13.0397L20.2152 12.932L20.0301 12.8373L19.8321 12.7597L19.6297 12.6951L19.4231 12.6521L19.2122 12.6219L18.9969 12.6133L18.786 12.6219L18.5751 12.6477L18.3685 12.6908L18.1661 12.7468L17.9681 12.8244L17.7787 12.9191L17.5979 13.0268L17.4257 13.1474L17.2621 13.2853L17.1115 13.4361L16.978 13.5954L16.8532 13.7677L16.7456 13.953L16.6552 14.1425L16.5777 14.3407L16.5174 14.5431L16.4744 14.7499L16.4486 14.961L16.4399 15.172L16.4529 15.3831L16.4787 15.5942L16.5217 15.801L16.5863 16.0034L16.6638 16.1973L16.7585 16.3868L16.8704 16.5677L16.9909 16.74L17.133 16.8994L17.2837 17.0459L17.4472 17.1837L29.819 26.5917L29.8879 26.6348L29.9653 26.665L30.0471 26.6779L30.1246 26.6736L30.2064 26.6564L30.2796 26.6262L30.3485 26.5831L30.4044 26.5228L30.4475 26.4582L30.4819 26.3807L30.4991 26.3031V26.2213L30.4862 26.1437Z" fill="#003865"/>
<path d="M34.683 21.9445L34.6572 21.8713L34.6141 21.8024L25.2041 9.41775L25.0707 9.25406L24.9243 9.10329L24.765 8.96545L24.5928 8.84052L24.412 8.72852L24.2226 8.63375L24.0246 8.55622L23.8223 8.49591L23.6157 8.44852L23.409 8.42268L23.1938 8.41406L22.9829 8.42268L22.7762 8.44422L22.5653 8.48729L22.363 8.5476L22.165 8.62514L21.9756 8.7156L21.7948 8.82329L21.6226 8.94822L21.459 9.08606L21.3126 9.23252L21.1749 9.39622L21.0501 9.56852L20.9424 9.74945L20.852 9.93898L20.7746 10.1371L20.7143 10.3396L20.6712 10.5507L20.6497 10.7574L20.6411 10.9685L20.6497 11.1796L20.6755 11.3907L20.7229 11.5974L20.7832 11.7999L20.8607 12.0024L20.9554 12.1919L21.0673 12.3728L21.1921 12.5451L21.3299 12.7045L21.4805 12.851L21.6441 12.9845L34.0202 22.3968L34.089 22.4399L34.1622 22.4658L34.244 22.4787H34.3258L34.4033 22.4614L34.4764 22.4313L34.5452 22.3839L34.6012 22.3279L34.6486 22.259L34.6787 22.1858L34.6959 22.1082V22.0264L34.683 21.9445Z" fill="#003865"/>
<path d="M38.8801 17.7438L38.8499 17.6662L38.8069 17.5973L29.4056 5.22129L29.2678 5.0576L29.1215 4.90252L28.9622 4.76037L28.79 4.63975L28.6092 4.52775L28.4198 4.43298L28.2261 4.35545L28.0238 4.29083L27.8171 4.24775L27.6062 4.22191L27.3953 4.20898L27.1844 4.2176L26.9734 4.24345L26.7668 4.28652L26.5645 4.34683L26.3622 4.42437L26.1727 4.51483L25.9876 4.62252L25.8155 4.74745L25.6562 4.88099L25.5055 5.03606L25.3678 5.19975L25.2472 5.37206L25.1396 5.55298L25.0449 5.74252L24.9674 5.94068L24.9115 6.14314L24.8684 6.34991L24.8426 6.56098L24.834 6.77206L24.8426 6.98314L24.8727 7.19422L24.9158 7.40098L24.9803 7.60345L25.0578 7.8016L25.1525 7.98683L25.2601 8.16775L25.385 8.34006L25.5227 8.49945L25.6734 8.65022L25.837 8.78375L38.2129 18.1918L38.2817 18.2348L38.3592 18.265L38.4367 18.2779H38.5185L38.596 18.2607L38.6735 18.2262L38.738 18.1831L38.7983 18.1271L38.8413 18.0582L38.8758 17.985L38.8887 17.9031L38.893 17.8256L38.8801 17.7438Z" fill="#003865"/>
<path d="M44.3041 19.7598L44.2783 19.5444L44.2352 19.3376L44.175 19.1352L44.1018 18.937L44.0071 18.7475L43.8995 18.5666L43.7789 18.3943L43.6412 18.2306L43.4905 18.0841L43.3313 17.9463L43.1591 17.8213L42.974 17.7136L42.7845 17.6232L42.5865 17.5456L42.3842 17.4853L42.1776 17.4423L41.9667 17.4164L41.7557 17.4121L41.5448 17.4207L41.3296 17.4466L41.1229 17.494L40.9206 17.5543L40.7269 17.6318L40.5375 17.7266L40.3567 17.8386L40.1845 17.9635L40.0252 18.1013L39.8746 18.2521L39.7411 18.4158L30.3398 30.8004L30.2967 30.8693L30.2666 30.9426L30.2537 31.0244V31.1063L30.2709 31.1838L30.3053 31.257L30.3484 31.326L30.4086 31.382L30.4732 31.4293L30.5464 31.4595L30.6282 31.4767H30.71L30.7874 31.4638L30.8649 31.4336L30.9338 31.3949L43.3097 21.9826L43.469 21.849L43.624 21.7026L43.7617 21.5389L43.8866 21.3709L43.9942 21.19L44.0889 21.0004L44.1664 20.8023L44.2309 20.5998L44.274 20.393L44.2998 20.182L44.3127 19.9709L44.3041 19.7598Z" fill="#003865"/>
<path d="M48.4967 23.961L48.4709 23.7499L48.4321 23.5431L48.3719 23.3364L48.2944 23.1425L48.204 22.9487L48.0921 22.7677L47.9715 22.5954L47.8338 22.4361L47.6831 22.2853L47.5238 22.1474L47.3517 22.0268L47.1709 21.9191L46.9772 21.8244L46.7834 21.7468L46.5768 21.6865L46.3702 21.6477L46.1636 21.6219L45.9483 21.6133L45.7374 21.6219L45.5308 21.6521L45.3241 21.6951L45.1218 21.7554L44.9238 21.8373L44.7344 21.9321L44.5536 22.0397L44.3814 22.1647L44.2221 22.3025L44.0758 22.4533L43.938 22.617L34.5365 35.0016L34.4935 35.0705L34.4677 35.1481L34.4504 35.2256L34.4547 35.3074L34.472 35.385L34.5021 35.4625L34.5494 35.5271L34.6054 35.5831L34.67 35.6305L34.7475 35.6607L34.825 35.6779L34.9067 35.6822L34.9885 35.665L35.0617 35.6391L35.1306 35.5961L47.5023 26.1837L47.6659 26.0459L47.8166 25.8994L47.9543 25.7401L48.0792 25.5677L48.1868 25.3868L48.2815 25.1973L48.3633 24.9991L48.4235 24.7967L48.4666 24.5899L48.4967 24.3831L48.5053 24.1721L48.4967 23.961Z" fill="#003865"/>
<path d="M52.6983 28.1606L52.6725 27.9495L52.6294 27.7427L52.5691 27.5403L52.4917 27.3421L52.4013 27.1483L52.2936 26.9674L52.1688 26.7994L52.0354 26.6314L51.8847 26.4806L51.7211 26.3471L51.5489 26.2221L51.3681 26.1144L51.1787 26.0197L50.9807 25.9464L50.7784 25.8861L50.5718 25.8431L50.3608 25.8172L50.1499 25.8086L49.939 25.8215L49.728 25.8474L49.5214 25.8904L49.3191 25.9551L49.1211 26.0326L48.9317 26.1274L48.7509 26.2351L48.5787 26.36L48.4151 26.5021L48.2687 26.6529L48.1353 26.8166L38.7338 39.1969L38.6908 39.2658L38.6606 39.3434L38.6477 39.4209V39.5027L38.6649 39.5846L38.6951 39.6578L38.7424 39.7267L38.7984 39.7827L38.8672 39.8258L38.9404 39.8603L39.0222 39.8775H39.0997L39.1815 39.8646L39.2547 39.8344L39.3235 39.7914L51.6996 30.3834L51.8632 30.2498L52.0138 30.0991L52.1516 29.9397L52.2764 29.7674L52.3883 29.5864L52.483 29.3969L52.5605 29.2031L52.6208 29.0006L52.6682 28.7938L52.694 28.5827L52.7026 28.3717L52.6983 28.1606Z" fill="#003865"/>
<path d="M39.5045 42.5315L39.4787 42.3204L39.4313 42.1137L39.371 41.9112L39.2935 41.713L39.1988 41.5235L39.0869 41.3426L38.9621 41.1703L38.8243 41.0109L38.6737 40.8644L38.5101 40.7266L26.134 31.3186L26.0651 31.2755L25.9919 31.2453L25.9102 31.2324L25.8284 31.2367L25.7509 31.254L25.6777 31.2841L25.6088 31.3272L25.5529 31.3875L25.5055 31.4521L25.4754 31.5297L25.4582 31.6072L25.4539 31.689L25.4711 31.7666L25.4969 31.8441L25.54 31.913L34.9501 44.2977L35.0835 44.4613L35.2299 44.6121L35.3892 44.75L35.5614 44.8749L35.7422 44.9826L35.9316 45.0773L36.1296 45.1592L36.3319 45.2195L36.5385 45.2626L36.7452 45.2927L36.9604 45.3013L37.1713 45.2927L37.378 45.2669L37.5889 45.2238L37.7912 45.1678L37.9892 45.0903L38.1786 44.9955L38.3594 44.8878L38.5316 44.7672L38.6952 44.6293L38.8416 44.4786L38.9793 44.3192L39.1041 44.1469L39.2118 43.9617L39.3022 43.7721L39.3796 43.574L39.4399 43.3715L39.483 43.1647L39.5045 42.9537L39.5131 42.7426L39.5045 42.5315Z" fill="#003865"/>
<path d="M21.9409 35.5174L21.8721 35.4743L21.7946 35.4485L21.717 35.4355H21.6353L21.5578 35.4528L21.4803 35.4829L21.4157 35.5303L21.3554 35.5863L21.3124 35.6552L21.278 35.7285L21.2651 35.806L21.2607 35.8879L21.2737 35.9697L21.3038 36.0429L21.3468 36.1119L30.7483 48.4922L30.8861 48.6559L31.0324 48.8066L31.1917 48.9445L31.3639 49.0694L31.5447 49.1857L31.7341 49.2762L31.9278 49.3537L32.1301 49.414L32.3368 49.4657L32.5477 49.4915L32.7586 49.4958H32.9696L33.1805 49.47L33.3871 49.4269L33.5894 49.3666L33.7918 49.2891L33.9812 49.1943L34.1663 49.0866L34.3385 48.9617L34.4979 48.8239L34.6486 48.6774L34.7863 48.5137L34.9068 48.3414L35.0145 48.1605L35.1092 47.9709L35.1824 47.7728L35.2426 47.5703L35.2857 47.3635L35.3115 47.1525L35.3201 46.9414L35.3115 46.7303L35.2814 46.5192L35.2383 46.3125L35.1737 46.11L35.0963 45.9119L35.0016 45.7223L34.8939 45.5414L34.7691 45.3734L34.6313 45.2097L34.4807 45.0632L34.317 44.9297L21.9409 35.5174Z" fill="#003865"/>
<path d="M31.11 50.9299L31.0842 50.7189L31.0368 50.5121L30.9765 50.3096L30.8991 50.1158L30.8044 49.9262L30.6925 49.7453L30.5676 49.573L30.4299 49.4136L30.2792 49.2586L30.1156 49.125L17.7396 39.717L17.6707 39.6739L17.5975 39.6438L17.5157 39.6309H17.4382L17.3564 39.6481L17.2833 39.6826L17.2144 39.7256L17.1584 39.7816L17.1111 39.8506L17.0809 39.9238L17.0637 40.0056V40.0875L17.0766 40.165L17.1068 40.2426L17.1498 40.3115L26.5556 52.6918L26.6891 52.8555L26.8397 53.0062L26.999 53.1484L27.1669 53.2733L27.3477 53.381L27.5371 53.4758L27.7351 53.5533L27.9375 53.6179L28.144 53.661L28.355 53.6869L28.5659 53.6998L28.7768 53.6912L28.9878 53.6653L29.1944 53.6222L29.3967 53.5619L29.5947 53.4887L29.7842 53.3939L29.9649 53.2862L30.1372 53.1613L30.3007 53.0278L30.4514 52.877L30.5849 52.7133L30.7097 52.541L30.8173 52.3601L30.9077 52.1706L30.9852 51.9724L31.0455 51.7699L31.0885 51.5632L31.1143 51.3521L31.1229 51.141L31.11 50.9299Z" fill="#003865"/>
<path d="M25.699 26.8064L25.6818 26.7246L25.6517 26.6513L25.6043 26.5824L25.5484 26.5264L25.4795 26.479L25.4063 26.4489L25.3288 26.4316H25.247L25.1652 26.4446L25.092 26.4747L25.0232 26.5135L12.6514 35.9301L12.4879 36.0636L12.3372 36.2101L12.1994 36.3738L12.0746 36.5418L11.9627 36.7227L11.8723 36.9123L11.7905 37.1104L11.7302 37.3129L11.6872 37.5196L11.657 37.7307L11.6484 37.9418L11.657 38.1529L11.6786 38.3639L11.7216 38.5707L11.7819 38.7732L11.8594 38.9713L11.9498 39.1609L12.0617 39.3418L12.1822 39.5141L12.32 39.6778L12.4706 39.8286L12.6299 39.9621L12.8021 40.087L12.9829 40.1947L13.1766 40.2852L13.3703 40.3627L13.5726 40.423L13.7836 40.4661L13.9902 40.4919L14.2054 40.4963L14.4164 40.4876L14.623 40.4618L14.8296 40.4144L15.0319 40.3541L15.23 40.2766L15.4194 40.1818L15.6002 40.0698L15.7723 39.9449L15.9316 39.807L16.078 39.6563L16.2157 39.4926L25.6172 27.1079L25.6603 27.0433L25.6861 26.9658L25.7033 26.8839L25.699 26.8064Z" fill="#003865"/>
<path d="M21.489 22.6683L21.4589 22.5908L21.4115 22.5262L21.3555 22.4702L21.2867 22.4228L21.2135 22.3926L21.1317 22.3754L21.0542 22.3711L20.9724 22.3883L20.8992 22.4142L20.8304 22.4572L8.45432 31.8696L8.29074 32.0074L8.14008 32.1539L8.00233 32.3132L7.87749 32.4856L7.76557 32.6665L7.67087 32.856L7.59338 33.0542L7.53312 33.2566L7.48576 33.4634L7.45994 33.6702L7.44702 33.8812L7.45563 34.0966L7.48146 34.3034L7.52451 34.5102L7.58477 34.7169L7.66226 34.9108L7.75266 35.1046L7.86027 35.2856L7.98511 35.4579L8.11856 35.6172L8.26922 35.768L8.4328 35.9059L8.60499 36.0265L8.78579 36.1342L8.97519 36.2289L9.17321 36.3065L9.37553 36.3668L9.58216 36.4056L9.79309 36.4314L10.004 36.44L10.215 36.4314L10.4259 36.4012L10.6325 36.3582L10.8348 36.2979L11.0328 36.216L11.2223 36.1212L11.4031 36.0136L11.5709 35.8886L11.7302 35.7508L11.8809 35.6L12.0186 35.4363L21.4201 23.0517L21.4632 22.9828L21.4933 22.9052L21.5062 22.8277V22.7459L21.489 22.6683Z" fill="#003865"/>
<path d="M17.292 18.3261L17.2575 18.2529L17.2145 18.1883L17.1542 18.128L17.0896 18.0849L17.0122 18.0504L16.9347 18.0332H16.8529L16.7754 18.0461L16.6979 18.0763L16.629 18.1194L4.2573 27.5317L4.08942 27.6652L3.93875 27.816L3.801 27.9754L3.67617 28.1477L3.56855 28.3286L3.47384 28.5181L3.39636 28.712L3.33179 28.9144L3.28874 29.1212L3.25861 29.3323L3.25 29.5434L3.25861 29.7544L3.28444 29.9655L3.32748 30.1723L3.38775 30.3747L3.46093 30.5729L3.55563 30.7624L3.66325 30.9477L3.78378 31.12L3.92153 31.2794L4.0722 31.4301L4.23578 31.568L4.40797 31.6886L4.59307 31.7963L4.78248 31.891L4.98049 31.9643L5.18281 32.0246L5.38944 32.0677L5.60037 32.0935L5.8113 32.1021L6.02223 32.0892L6.23317 32.0634L6.43979 32.0203L6.64211 31.9557L6.83582 31.8781L7.02523 31.7834L7.20603 31.6757L7.37822 31.5507L7.53749 31.4129L7.68816 31.2578L7.8216 31.0984L17.2231 18.7138L17.2661 18.6449L17.2963 18.5674L17.3092 18.4898V18.408L17.292 18.3261Z" fill="#003865"/>
</g>
</svg>
